<?xml version="1.0" encoding="utf-8"?>
<!-- Generator: Adobe Illustrator 25.2.1, SVG Export Plug-In . SVG Version: 6.00 Build 0)  -->
<svg version="1.1" id="Ebene_1" xmlns="http://www.w3.org/2000/svg" xmlns:xlink="http://www.w3.org/1999/xlink" x="0px" y="0px"
	 viewBox="0 0 230 80.5" style="enable-background:new 0 0 230 80.5;" xml:space="preserve">
<style type="text/css">
	.st0{fill:#ff6700;}
</style>
<g id="Layer_2">
	<g id="Layer_1-2">
		<path class="st0" d="M72.8,38.3c0,8.4-6.8,15.3-15.3,15.3c0,0,0,0-0.1,0c-8.5,0-15.3-6.8-15.3-15.3c0,0,0,0,0-0.1v-23H30.7v23
			c-0.1,7.1,2.7,14,7.9,19c5,5.1,11.9,8,19,7.9c4.5,0.1,9-1.1,13-3.2c-0.6,0.9-1.3,1.8-2.1,2.6c-2.9,2.9-6.8,4.5-10.9,4.5v11.5
			c7.1,0.1,14-2.7,19-7.9c5.1-5,8-11.9,7.9-19V15.3H72.8V38.3z"/>
		<path class="st0" d="M115,11.5c-5.5-0.1-10.9,1.6-15.3,4.8V0H26.8c-7.1-0.1-14,2.7-19,7.9c-5.1,5-8,11.8-7.8,19v38.3h11.5V38.3
			h15.3V26.8H11.5c-0.1-4.1,1.6-8,4.5-10.8c2.8-2.9,6.8-4.6,10.8-4.5h61.3v26.8c-0.1,7.1,2.7,14,7.9,19c10.5,10.5,27.5,10.5,38,0
			c0,0,0,0,0,0c5.1-5,8-11.9,7.9-19c0.1-7.1-2.7-14-7.9-19C129.1,14.2,122.2,11.4,115,11.5z M125.8,49.2c-6,6-15.7,6-21.7,0
			c-2.9-2.9-4.5-6.8-4.5-10.9c-0.2-8.5,6.5-15.5,14.9-15.7c8.5-0.2,15.5,6.5,15.7,14.9c0,0.3,0,0.5,0,0.8
			C130.4,42.4,128.8,46.3,125.8,49.2L125.8,49.2z"/>
		<path class="st0" d="M172.5,11.5c-7.1-0.1-14,2.7-19,7.9c-5.1,5-8,11.9-7.9,19c-0.1,7.1,2.7,14,7.9,19c10.5,10.5,27.5,10.5,38,0
			c0,0,0,0,0,0c2.7-2.7,4.8-5.9,6.2-9.4h-13.2c-0.4,0.4-0.7,0.9-1.1,1.3c-6,6-15.7,6-21.7,0c-1.5-1.5-2.6-3.2-3.4-5.1h40.5
			c0.4-1.9,0.6-3.8,0.6-5.8c0.1-7.1-2.7-14-7.9-19C186.5,14.2,179.7,11.4,172.5,11.5z M158.3,32.6c0.8-1.9,1.9-3.7,3.4-5.1
			c6-6,15.7-6,21.7,0c1.5,1.4,2.6,3.2,3.4,5.1H158.3z"/>
		<path class="st0" d="M211.1,19.4c-5.1,5-8,11.9-7.9,19v26.8h11.5V38.3c0-8.5,6.8-15.3,15.3-15.3V11.5
			C222.9,11.4,216,14.2,211.1,19.4z"/>
	</g>
</g>
</svg>
